<?xml version="1.0" encoding="UTF-8" standalone="no"?>
<svg
   width="551.71973"
   height="458.33176"
   viewBox="0 0 551.71973 458.33176"
   version="1.1"
   id="svg2"
   sodipodi:docname="indigo-logo.svg"
   inkscape:version="1.4.2 (ebf0e940, 2025-05-08)"
   xmlns:inkscape="http://www.inkscape.org/namespaces/inkscape"
   xmlns:sodipodi="http://sodipodi.sourceforge.net/DTD/sodipodi-0.dtd"
   xmlns="http://www.w3.org/2000/svg"
   xmlns:svg="http://www.w3.org/2000/svg">
  <defs
     id="defs2" />
  <sodipodi:namedview
     id="namedview2"
     pagecolor="#ffffff"
     bordercolor="#000000"
     borderopacity="0.25"
     inkscape:showpageshadow="2"
     inkscape:pageopacity="0.0"
     inkscape:pagecheckerboard="0"
     inkscape:deskcolor="#d1d1d1"
     inkscape:zoom="0.50242887"
     inkscape:cx="395.0808"
     inkscape:cy="255.75759"
     inkscape:window-width="1728"
     inkscape:window-height="992"
     inkscape:window-x="0"
     inkscape:window-y="38"
     inkscape:window-maximized="1"
     inkscape:current-layer="svg2" />
  <path
     d="m 407.3239,-0.51756399 c -13.389,2.06899999 -25.552,8.36399999 -35.5,18.37299999 -13.533,13.617 -19.024,25.853 -19.741,43.995 -0.805,20.376 4.892,35.899 18.338,49.974004 12.437,13.017 25.321,18.477 43.403,18.393 11.919,-0.056 18.574,-1.663 29.5,-7.126 11.097,-5.548 27.823,-23.726004 31.047,-33.741004 0.354,-1.1 -0.862,0.595 -2.702,3.766 -10.047,17.318004 -22.729,28.037004 -39.806,33.643004 -9.027,2.964 -26.823,3.049 -36.039,0.173 -20.385,-6.362 -36.939,-25.141 -41.622,-47.216004 -2.079,-9.798 -1.395,-25.942 1.477,-34.866 6.03,-18.736 23.492,-36.278 41.762,-41.953 11.175,-3.47099999 20.796,-3.61899999 36.383,-0.559 1.375,0.27 0.475,-0.188 -2,-1.018 -4.652,-1.55899999 -19.228,-2.653 -24.5,-1.83799999 m 34.215,5.77999999 c 17.886,8.382 31.78,25.028 36.382,43.588 2.002,8.077 1.535,23.11 -0.962,30.957 -1.13,3.551 -1.875,6.637 -1.655,6.856 0.219,0.219 1.401,-2.904 2.627,-6.94 2.62,-8.626 3.073,-22.319 1.022,-30.873 -0.725,-3.025 -3.176,-9.319 -5.447,-13.987 -6.619,-13.609 -23.043,-28.486 -34.682,-31.415 -1.375,-0.346 -0.153,0.47 2.715,1.814 m -279.715,39.193 c -7.544,0.913 -21.653,3.444 -24.5,4.395 -2.969,0.992 -2.963,0.996 0.5,0.442 1.925,-0.309 7.325,-1.259 12,-2.113 9.277,-1.693 26.908,-2.212 39.5,-1.162 5.34,0.445 6.67,0.382 4,-0.191 -4.773,-1.024 -26.541,-1.971 -31.5,-1.371 m -39.5,8.792 c -13.475,4.937 -21.556,8.861 -31.232005,15.169 -23.055,15.028 -41.104,32.955004 -55.941,55.565004 -6.126,9.334 -18.553,33.794 -19.749,38.869 l -0.589,2.5 1.17,-2.5 c 14.022,-29.978 17.958,-36.866 29.711,-52 12.338,-15.886004 33.761,-34.896004 49.786,-44.180004 7.802005,-4.519 21.028005,-10.474 30.844005,-13.888 4.4,-1.53 7.325,-2.793 6.5,-2.807 -0.825,-0.014 -5.55,1.459 -10.5,3.272 m 102.5,1.137 c 12.029,4.349 29.305,12.745 39,18.957 32.191,20.623 60.492,53.315004 82.064,94.798004 l 5.711,10.984 -9.637,7.18 c -13.03,9.706 -32.036,26.446 -46.993,41.392 -6.795,6.79 -12.684,11.965 -13.086,11.5 -0.403,-0.465 -1.747,-3.32 -2.987,-6.345 -3.621,-8.834 -13.326,-26.76 -20.332,-37.555 -17.864,-27.528 -39.811,-48.491 -62.24,-59.446 -12.693,-6.201 -19.297,-7.928 -33,-8.635 -22.564,-1.163 -39.106,5.691 -55,22.792 -9.946005,10.701 -19.074005,29.439 -20.872005,42.844 -0.332,2.475 0.508,0.346 1.866,-4.731 7.694,-28.766 26.133005,-49.987 50.006005,-57.551 5.845,-1.852 9.228,-2.209 20.5,-2.164 16.165,0.064 22.182,1.466 36.5,8.502 22.185,10.903 43.055,30.929 61.272,58.793 7.838,11.991 17.818,30.458 20.742,38.387 3.084,8.361 3.336,8.299 15.271,-3.767 14.297,-14.455 34.183,-32.069 47.925,-42.452 l 11.21,-8.469 -6.936,-13.358 c -12.611,-24.285 -29.708,-47.974 -47.448,-65.741 -16.584,-16.610004 -31.607,-27.498004 -52.04,-37.716004 -10.36,-5.181 -27.241,-11.793 -29.826,-11.683 -0.643,0.027 3.105,1.595 8.33,3.484 M 11.818895,172.07644 c -3.0959995,8.48 -8.7119995,31.41 -9.4329995,38.513 -0.322,3.169 0.751,-0.539 2.383,-8.239 1.633,-7.7 4.541,-18.935 6.4629995,-24.966 3.844,-12.069 4.188,-15.171 0.587,-5.308 m 463.505005,10.337 c 7.15,0.734 16.144,2.226 19.986,3.316 3.842,1.091 7.147,1.821 7.345,1.623 0.199,-0.198 -2.72,-1.276 -6.485,-2.395 -7.307,-2.173 -21.944,-4.159 -29.346,-3.984 -2.475,0.059 1.35,0.707 8.5,1.44 m -29.903,1.044 c -18.118,3.272 -39.145,12.409 -58.377,25.368 -19.684,13.262 -36.25,27.758 -66.72,58.38 -45.522,45.749 -57.831,56.123 -83.5,70.372 -9.946,5.521 -11.645,7.154 -2.757,2.65 23.747,-12.034 46.429,-30.742 81.998,-67.633 58.974,-61.166 96.949,-85.12 142.759,-90.047 2.927,-0.315 2.763,-0.388 -1,-0.447 -2.475,-0.039 -8.056,0.572 -12.403,1.357 m 64.739,8.097 c 18,9.599 32.562,29.513 38.804,53.063 2.591,9.776 3.589,33.007 1.99,46.317 -0.623,5.179 -1.341,11.216 -1.596,13.416 -0.255,2.2 0.206,1.075 1.026,-2.5 0.843,-3.676 1.741,-14.319 2.068,-24.5 0.509,-15.844 0.327,-19.214 -1.521,-28.136 -4.43,-21.397 -14.389,-38.558 -29.939,-51.592 -4.296,-3.601 -15.061,-9.811 -16.889,-9.743 -0.429,0.016 2.297,1.669 6.057,3.675 m -424.704005,10.015 c -1.733,10.238 -1.842,31.142 -0.23,44.227 0.911,7.395 1.925,13.695 2.255,14 0.329,0.305 0.35,-1.021 0.046,-2.946 -2.168,-13.73 -3.004,-33.454 -1.932,-45.545 1.137,-12.824 1.078,-16.928 -0.139,-9.736 m -85.14299954,22.552 c -0.382,4.081 -0.512,8.277 -0.289,9.325 0.224,1.047 0.748,-2.081 1.16400004,-6.952 0.417,-4.871 0.547,-9.067 0.289,-9.324 -0.258,-0.258 -0.78100004,2.87 -1.16400004,6.951 m -0.949,35.729 c 0.362,24.384 1.315,33.088 6.00200004,54.822 12.2409995,56.769 46.2999995,103.999 92.8579995,128.767 34.151005,18.167 74.844005,20.775 110.322005,7.071 25.164,-9.72 46.341,-22.986 69.825,-43.74 12.243,-10.82 22.798,-21.914 48.448,-50.92 37.994,-42.965 46.469,-52.204 54.81,-59.752 24.671,-22.325 42.422,-31.248 62.161,-31.248 14.52,0 26.032,6.166 31.115,16.667 3.303,6.824 3.769,19.614 1.087,29.865 -3.339,12.764 -3.417,13.143 -2.351,11.468 2.029,-3.19 5.183,-18.713 5.183,-25.509 0,-14.637 -5.311,-24.059 -16.729,-29.677 -6.499,-3.197 -7.159,-3.314 -18.753,-3.303 -9.848,0.008 -13.201,0.418 -18.569,2.265 -21.413,7.369 -43.553,25.916 -78.462,65.724 -27.193,31.009 -29.785,33.926 -39.42,44.356 -5.262,5.696 -9.721,10.771 -9.91,11.278 -0.773,2.081 -26.43,24.752 -36.657,32.391 -25.347,18.933 -50.385,30.848 -74.746,35.57 -19.632,3.806 -46.55,2.078 -65.698,-4.216 -41.451005,-13.627 -80.106005,-50.393 -99.563005,-94.697 -13.0429995,-29.701 -19.1029995,-58.716 -20.50399954,-98.182 l -0.799,-22.5 0.35,23.5 m 88.52099954,2.138 c -0.104,2.783 4.609,17.934 8.295,26.666 8.176005,19.373 24.250005,39.75 39.534005,50.117 14.827,10.057 26.958,14.019 44.61,14.566 l 12,0.373 -11.531,-0.809 c -23.32,-1.637 -39.143,-8.498 -55.321,-23.99 -16.944,-16.223 -27.547005,-34.237 -34.764005,-59.061 -1.519,-5.225 -2.789,-8.763 -2.823,-7.862 m 459.008005,52.449 c -2.202,9.853 -8.88,28.259 -14.572,40.163 -2.958,6.188 -5.185,11.25 -4.948,11.25 0.966,0 9.462,-18.223 13.287,-28.5 4.585,-12.318 8.5,-25.992 7.931,-27.7 -0.207,-0.62 -0.971,1.535 -1.698,4.787 m -76.498,14.622 c -5.014,12.815 -17.869,31.259 -30.605,43.914 -15.135,15.038 -30.18,24.204 -49.116,29.926 -16.758,5.063 -42.237,5.254 -55.941,0.419 l -3.795,-1.339 -7.523,9.186 c -4.138,5.052 -9.788,11.807 -12.557,15.013 -2.769,3.205 -5.034,6.214 -5.034,6.686 0,1.464 16.089,11.635 24.346,15.391 28.864,13.129 62.933,15.285 93.154,5.894 18.337,-5.698 41.722,-18.821 58.5,-32.828 16.481,-13.759 35.813,-36.83 43.968,-52.471 2.132,-4.09 0.686,-2.136 -7.768,10.5 -26.78,40.028 -68.318,69.416 -109.7,77.613 -10.346,2.05 -39.815,1.832 -49.792,-0.368 -9.979,-2.2 -22.512,-6.63 -31.855,-11.259 -7.952,-3.941 -19.791,-11.533 -19.829,-12.718 -0.013,-0.402 3.734,-4.961 8.328,-10.13 4.594,-5.17 9.871,-11.514 11.727,-14.099 2.81,-3.912 3.798,-4.619 5.898,-4.221 1.388,0.263 6.348,1.251 11.023,2.195 12.6,2.545 33.308,1.671 45.5,-1.92 11.265,-3.319 25.521,-10.092 34.282,-16.29 9.37,-6.629 26.509,-24.156 34.034,-34.806 6.366,-9.009 15.991,-27.023 14.98,-28.035 -0.3,-0.3 -1.301,1.386 -2.225,3.747 m -255.571,17.94 c -1.375,0.562 -5.65,1.858 -9.5,2.881 -3.85,1.023 -5.863,1.885 -4.472,1.915 2.251,0.049 17.837,-4.524 18.889,-5.542 0.786,-0.761 -2.418,-0.276 -4.917,0.746"
     stroke="none"
     fill="#7b7d7f"
     fill-rule="evenodd"
     id="path1"
     style="display:none;fill:#333434;fill-opacity:1;stroke-width:1.1;stroke-dasharray:none" />
  <path
     d="M 405.1709,0.94543601 C 383.6489,4.540436 362.5979,23.206436 355.6729,44.835436 c -2.865,8.95 -3.546,25.099 -1.471,34.881 8.60302,40.553424 50.5119,60.618744 87.382,43.065004 6.698,-3.242 10.066,-5.739 16.573,-12.288 14.111,-14.200004 20.758,-28.966004 20.998,-46.643004 0.206,-15.173 -3.852,-27.367 -12.811,-38.5 -15.925,-19.788 -37.439,-28.371 -61.173,-24.40499999 M 158.4989,45.906436 c -9.582,1.114 -22.03,3.667 -29.675,6.087 -8.536,2.701 -25.994,10.376 -33.344005,14.658 -33.74394,19.65903 -55.10787,50.445514 -62.492,62.323004 -16.351,25.889 -28.8129995,65.017 -32.23499954,101.21 -1.469,15.531 -0.694,47.657 1.50600004,62.47 8.0539995,54.217 29.3959995,96.694 64.0649995,127.507 11.045,9.817 25.397,19.378 37.716005,25.125 26.34151,10.88839 27.97624,11.08186 52.547,12.14 14.146,0.537 19.022,0.341 27,-1.085 24.871,-4.446 50.865,-16.631 76.737,-35.973 11.661,-8.718 34.812,-29.365 36.535,-32.583 0.563,-1.053 1.553,-1.807 2.199,-1.675 0.646,0.132 1.196,-0.294 1.221,-0.946 0.025,-0.652 3.806,-5.278 8.404,-10.279 4.597,-5.002 10.621,-11.77 13.386,-15.04 2.765,-3.269 5.427,-5.698 5.916,-5.396 0.489,0.303 0.765,0.099 0.614,-0.452 -0.569,-2.071 70.28557,-73.11172 84.225,-81.949 4.05857,-2.15241 28.86646,-14.42458 49.271,-4.384 10.97175,5.39838 14.55852,14.74087 15.613,18.641 3.442,13.667 -1.395,35.466 -12.124,54.643 -5.013,8.961 -13.265,20.049 -14.254,19.152 -0.455,-0.413 -0.512,-0.202 -0.127,0.467 0.933,1.625 -18.844,21.394 -27.597,27.586 -8.761,6.198 -23.017,12.971 -34.282,16.29 -12.192,3.591 -32.9,4.465 -45.5,1.92 -4.675,-0.944 -9.635,-1.932 -11.023,-2.195 -2.1,-0.398 -3.088,0.309 -5.898,4.221 -1.856,2.585 -7.133,8.929 -11.727,14.099 -4.594,5.169 -8.341,9.728 -8.328,10.13 0.038,1.185 11.877,8.777 19.829,12.718 19.696,9.759 33.82,12.971 57.147,12.995 19.049,0.021 25.872,-0.934 40.5,-5.665 65.747,-21.265 117.924,-87.736 126.597,-161.278 1.629,-13.809 0.663,-36.886 -1.957,-46.771 -4.67,-17.619 -12.645,-31.372 -24.747,-42.674 -14.192,-13.253 -30.935,-19.221 -54.393,-19.385 -48.627,-0.342 -90.004,23.889 -153.759,90.046 -30.547,31.698 -50.655,49.114 -70.651,61.192 -6.71453,4.05541 -34.80173,19.97472 -62.09,20.025 -20.8037,-0.19454 -42.14537,-11.189 -58.206,-23.663 -28.484005,-27.466 -43.195005,-67.83 -40.943005,-112.339 1.489,-29.407 9.586,-52.144 24.149005,-67.813 15.894,-17.101 32.436,-23.955 55,-22.792 13.703,0.707 20.307,2.434 33,8.635 23.077,11.272 45.146,32.683 63.907,62.001 7.03,10.986 20.315,36.897 20.88,40.724 0.18,1.224 56.38859,-49.69303 64.017,-71.917 -6.60963,-12.64077 -12.57214,-23.4124 -21.142,-34.562 -9.912,-14.758 -30.146,-36.387004 -44.55,-47.622004 -36.417,-28.406 -82.344,-43.052 -120.937,-38.567"
     stroke="none"
     fill="#fbfbfb"
     fill-rule="evenodd"
     id="path2"
     style="display:inline;fill:#000000;fill-opacity:1"
     sodipodi:nodetypes="cccccsccccccccccccscsscccccccccccccscccccccsccsccccsccsccccc" />
</svg>
